<mxfile host="app.diagrams.net" agent="Mozilla/5.0 (Windows NT 10.0; Win64; x64) AppleWebKit/537.36 (KHTML, like Gecko) Chrome/128.0.0.0 Safari/537.36 OPR/114.0.0.0" version="24.8.9">
  <diagram name="หน้า-1" id="9ucv7QojsdEsem5BzGmJ">
    <mxGraphModel dx="1008" dy="569" grid="1" gridSize="10" guides="1" tooltips="1" connect="1" arrows="1" fold="1" page="1" pageScale="1" pageWidth="827" pageHeight="1169" math="0" shadow="0">
      <root>
        <mxCell id="0" />
        <mxCell id="1" parent="0" />
        <mxCell id="lgP_1gACHfZoU-txrUbW-9" value="" style="edgeStyle=orthogonalEdgeStyle;rounded=0;orthogonalLoop=1;jettySize=auto;html=1;" edge="1" parent="1" source="lgP_1gACHfZoU-txrUbW-1" target="lgP_1gACHfZoU-txrUbW-4">
          <mxGeometry relative="1" as="geometry" />
        </mxCell>
        <mxCell id="lgP_1gACHfZoU-txrUbW-1" value="กำหนดค่า&lt;div&gt;&lt;div style=&quot;line-height: 19px;&quot;&gt;&lt;span style=&quot;text-align: left;&quot;&gt;FirstName[&lt;/span&gt;&lt;span style=&quot;border: 0px solid rgb(227, 227, 227); box-sizing: border-box; --tw-border-spacing-x: 0; --tw-border-spacing-y: 0; --tw-translate-x: 0; --tw-translate-y: 0; --tw-rotate: 0; --tw-skew-x: 0; --tw-skew-y: 0; --tw-scale-x: 1; --tw-scale-y: 1; --tw-pan-x: ; --tw-pan-y: ; --tw-pinch-zoom: ; --tw-scroll-snap-strictness: proximity; --tw-gradient-from-position: ; --tw-gradient-via-position: ; --tw-gradient-to-position: ; --tw-ordinal: ; --tw-slashed-zero: ; --tw-numeric-figure: ; --tw-numeric-spacing: ; --tw-numeric-fraction: ; --tw-ring-inset: ; --tw-ring-offset-width: 0px; --tw-ring-offset-color: #fff; --tw-ring-color: rgba(69,89,164,.5); --tw-ring-offset-shadow: 0 0 #0000; --tw-ring-shadow: 0 0 #0000; --tw-shadow: 0 0 #0000; --tw-shadow-colored: 0 0 #0000; --tw-blur: ; --tw-brightness: ; --tw-contrast: ; --tw-grayscale: ; --tw-hue-rotate: ; --tw-invert: ; --tw-saturate: ; --tw-sepia: ; --tw-drop-shadow: ; --tw-backdrop-blur: ; --tw-backdrop-brightness: ; --tw-backdrop-contrast: ; --tw-backdrop-grayscale: ; --tw-backdrop-hue-rotate: ; --tw-backdrop-invert: ; --tw-backdrop-opacity: ; --tw-backdrop-saturate: ; --tw-backdrop-sepia: ; --tw-contain-size: ; --tw-contain-layout: ; --tw-contain-paint: ; --tw-contain-style: ; scrollbar-color: var(--main-surface-tertiary) transparent; text-align: left;&quot; class=&quot;hljs-number&quot;&gt;50&lt;/span&gt;&lt;span style=&quot;text-align: left;&quot;&gt;], &lt;/span&gt;&lt;span style=&quot;text-align: left;&quot;&gt;&amp;nbsp;LastName[&lt;/span&gt;&lt;span style=&quot;border: 0px solid rgb(227, 227, 227); box-sizing: border-box; --tw-border-spacing-x: 0; --tw-border-spacing-y: 0; --tw-translate-x: 0; --tw-translate-y: 0; --tw-rotate: 0; --tw-skew-x: 0; --tw-skew-y: 0; --tw-scale-x: 1; --tw-scale-y: 1; --tw-pan-x: ; --tw-pan-y: ; --tw-pinch-zoom: ; --tw-scroll-snap-strictness: proximity; --tw-gradient-from-position: ; --tw-gradient-via-position: ; --tw-gradient-to-position: ; --tw-ordinal: ; --tw-slashed-zero: ; --tw-numeric-figure: ; --tw-numeric-spacing: ; --tw-numeric-fraction: ; --tw-ring-inset: ; --tw-ring-offset-width: 0px; --tw-ring-offset-color: #fff; --tw-ring-color: rgba(69,89,164,.5); --tw-ring-offset-shadow: 0 0 #0000; --tw-ring-shadow: 0 0 #0000; --tw-shadow: 0 0 #0000; --tw-shadow-colored: 0 0 #0000; --tw-blur: ; --tw-brightness: ; --tw-contrast: ; --tw-grayscale: ; --tw-hue-rotate: ; --tw-invert: ; --tw-saturate: ; --tw-sepia: ; --tw-drop-shadow: ; --tw-backdrop-blur: ; --tw-backdrop-brightness: ; --tw-backdrop-contrast: ; --tw-backdrop-grayscale: ; --tw-backdrop-hue-rotate: ; --tw-backdrop-invert: ; --tw-backdrop-opacity: ; --tw-backdrop-saturate: ; --tw-backdrop-sepia: ; --tw-contain-size: ; --tw-contain-layout: ; --tw-contain-paint: ; --tw-contain-style: ; scrollbar-color: var(--main-surface-tertiary) transparent; text-align: left;&quot; class=&quot;hljs-number&quot;&gt;50&lt;/span&gt;&lt;span style=&quot;text-align: left;&quot;&gt;]&lt;/span&gt;&lt;br&gt;&lt;/div&gt;&lt;/div&gt;&lt;div style=&quot;line-height: 19px;&quot;&gt;&lt;span style=&quot;text-align: left;&quot;&gt;(สำหรับเก็บข้อความ)&lt;/span&gt;&lt;/div&gt;" style="rounded=0;whiteSpace=wrap;html=1;" vertex="1" parent="1">
          <mxGeometry x="299" y="120" width="230" height="90" as="geometry" />
        </mxCell>
        <mxCell id="lgP_1gACHfZoU-txrUbW-10" value="" style="edgeStyle=orthogonalEdgeStyle;rounded=0;orthogonalLoop=1;jettySize=auto;html=1;" edge="1" parent="1" source="lgP_1gACHfZoU-txrUbW-3" target="lgP_1gACHfZoU-txrUbW-1">
          <mxGeometry relative="1" as="geometry" />
        </mxCell>
        <mxCell id="lgP_1gACHfZoU-txrUbW-3" value="&lt;font style=&quot;font-size: 20px;&quot;&gt;เริ่มต้น&lt;/font&gt;" style="rounded=1;whiteSpace=wrap;html=1;arcSize=50;" vertex="1" parent="1">
          <mxGeometry x="316" y="10" width="196" height="60" as="geometry" />
        </mxCell>
        <mxCell id="lgP_1gACHfZoU-txrUbW-8" value="" style="edgeStyle=orthogonalEdgeStyle;rounded=0;orthogonalLoop=1;jettySize=auto;html=1;" edge="1" parent="1" source="lgP_1gACHfZoU-txrUbW-4" target="lgP_1gACHfZoU-txrUbW-5">
          <mxGeometry relative="1" as="geometry" />
        </mxCell>
        <mxCell id="lgP_1gACHfZoU-txrUbW-4" value="&lt;div&gt;&lt;div style=&quot;line-height: 19px;&quot;&gt;แสดงผล&lt;/div&gt;&lt;/div&gt;&lt;div style=&quot;line-height: 19px;&quot;&gt;&lt;div style=&quot;line-height: 19px;&quot;&gt;First Name:&amp;nbsp;&amp;nbsp;&lt;/div&gt;&lt;/div&gt;&lt;div style=&quot;line-height: 19px;&quot;&gt;&lt;span style=&quot;color: rgba(0, 0, 0, 0); font-family: monospace; font-size: 0px; text-align: start; text-wrap: nowrap;&quot;&gt;%3CmxGraphModel%3E%3Croot%3E%3CmxCell%20id%3D%220%22%2F%3E%3CmxCell%20id%3D%221%22%20parent%3D%220%22%2F%3E%3CmxCell%20id%3D%222%22%20value%3D%22Initialization%26lt%3Bdiv%26gt%3B%26lt%3Bdiv%20style%3D%26quot%3Bline-height%3A%2019px%3B%26quot%3B%26gt%3B%26lt%3Bspan%20style%3D%26quot%3Btext-align%3A%20left%3B%26quot%3B%26gt%3BFirstName%5B%26lt%3B%2Fspan%26gt%3B%26lt%3Bspan%20style%3D%26quot%3Bborder%3A%200px%20solid%20rgb(227%2C%20227%2C%20227)%3B%20box-sizing%3A%20border-box%3B%20--tw-border-spacing-x%3A%200%3B%20--tw-border-spacing-y%3A%200%3B%20--tw-translate-x%3A%200%3B%20--tw-translate-y%3A%200%3B%20--tw-rotate%3A%200%3B%20--tw-skew-x%3A%200%3B%20--tw-skew-y%3A%200%3B%20--tw-scale-x%3A%201%3B%20--tw-scale-y%3A%201%3B%20--tw-pan-x%3A%20%3B%20--tw-pan-y%3A%20%3B%20--tw-pinch-zoom%3A%20%3B%20--tw-scroll-snap-strictness%3A%20proximity%3B%20--tw-gradient-from-position%3A%20%3B%20--tw-gradient-via-position%3A%20%3B%20--tw-gradient-to-position%3A%20%3B%20--tw-ordinal%3A%20%3B%20--tw-slashed-zero%3A%20%3B%20--tw-numeric-figure%3A%20%3B%20--tw-numeric-spacing%3A%20%3B%20--tw-numeric-fraction%3A%20%3B%20--tw-ring-inset%3A%20%3B%20--tw-ring-offset-width%3A%200px%3B%20--tw-ring-offset-color%3A%20%23fff%3B%20--tw-ring-color%3A%20rgba(69%2C89%2C164%2C.5)%3B%20--tw-ring-offset-shadow%3A%200%200%20%230000%3B%20--tw-ring-shadow%3A%200%200%20%230000%3B%20--tw-shadow%3A%200%200%20%230000%3B%20--tw-shadow-colored%3A%200%200%20%230000%3B%20--tw-blur%3A%20%3B%20--tw-brightness%3A%20%3B%20--tw-contrast%3A%20%3B%20--tw-grayscale%3A%20%3B%20--tw-hue-rotate%3A%20%3B%20--tw-invert%3A%20%3B%20--tw-saturate%3A%20%3B%20--tw-sepia%3A%20%3B%20--tw-drop-shadow%3A%20%3B%20--tw-backdrop-blur%3A%20%3B%20--tw-backdrop-brightness%3A%20%3B%20--tw-backdrop-contrast%3A%20%3B%20--tw-backdrop-grayscale%3A%20%3B%20--tw-backdrop-hue-rotate%3A%20%3B%20--tw-backdrop-invert%3A%20%3B%20--tw-backdrop-opacity%3A%20%3B%20--tw-backdrop-saturate%3A%20%3B%20--tw-backdrop-sepia%3A%20%3B%20--tw-contain-size%3A%20%3B%20--tw-contain-layout%3A%20%3B%20--tw-contain-paint%3A%20%3B%20--tw-contain-style%3A%20%3B%20scrollbar-color%3A%20var(--main-surface-tertiary)%20transparent%3B%20text-align%3A%20left%3B%26quot%3B%20class%3D%26quot%3Bhljs-number%26quot%3B%26gt%3B50%26lt%3B%2Fspan%26gt%3B%26lt%3Bspan%20style%3D%26quot%3Btext-align%3A%20left%3B%26quot%3B%26gt%3B%5D%2C%20%26lt%3B%2Fspan%26gt%3B%26lt%3Bspan%20style%3D%26quot%3Btext-align%3A%20left%3B%26quot%3B%26gt%3B%26amp%3Bnbsp%3BLastName%5B%26lt%3B%2Fspan%26gt%3B%26lt%3Bspan%20style%3D%26quot%3Bborder%3A%200px%20solid%20rgb(227%2C%20227%2C%20227)%3B%20box-sizing%3A%20border-box%3B%20--tw-border-spacing-x%3A%200%3B%20--tw-border-spacing-y%3A%200%3B%20--tw-translate-x%3A%200%3B%20--tw-translate-y%3A%200%3B%20--tw-rotate%3A%200%3B%20--tw-skew-x%3A%200%3B%20--tw-skew-y%3A%200%3B%20--tw-scale-x%3A%201%3B%20--tw-scale-y%3A%201%3B%20--tw-pan-x%3A%20%3B%20--tw-pan-y%3A%20%3B%20--tw-pinch-zoom%3A%20%3B%20--tw-scroll-snap-strictness%3A%20proximity%3B%20--tw-gradient-from-position%3A%20%3B%20--tw-gradient-via-position%3A%20%3B%20--tw-gradient-to-position%3A%20%3B%20--tw-ordinal%3A%20%3B%20--tw-slashed-zero%3A%20%3B%20--tw-numeric-figure%3A%20%3B%20--tw-numeric-spacing%3A%20%3B%20--tw-numeric-fraction%3A%20%3B%20--tw-ring-inset%3A%20%3B%20--tw-ring-offset-width%3A%200px%3B%20--tw-ring-offset-color%3A%20%23fff%3B%20--tw-ring-color%3A%20rgba(69%2C89%2C164%2C.5)%3B%20--tw-ring-offset-shadow%3A%200%200%20%230000%3B%20--tw-ring-shadow%3A%200%200%20%230000%3B%20--tw-shadow%3A%200%200%20%230000%3B%20--tw-shadow-colored%3A%200%200%20%230000%3B%20--tw-blur%3A%20%3B%20--tw-brightness%3A%20%3B%20--tw-contrast%3A%20%3B%20--tw-grayscale%3A%20%3B%20--tw-hue-rotate%3A%20%3B%20--tw-invert%3A%20%3B%20--tw-saturate%3A%20%3B%20--tw-sepia%3A%20%3B%20--tw-drop-shadow%3A%20%3B%20--tw-backdrop-blur%3A%20%3B%20--tw-backdrop-brightness%3A%20%3B%20--tw-backdrop-contrast%3A%20%3B%20--tw-backdrop-grayscale%3A%20%3B%20--tw-backdrop-hue-rotate%3A%20%3B%20--tw-backdrop-invert%3A%20%3B%20--tw-backdrop-opacity%3A%20%3B%20--tw-backdrop-saturate%3A%20%3B%20--tw-backdrop-sepia%3A%20%3B%20--tw-contain-size%3A%20%3B%20--tw-contain-layout%3A%20%3B%20--tw-contain-paint%3A%20%3B%20--tw-contain-style%3A%20%3B%20scrollbar-color%3A%20var(--main-surface-tertiary)%20transparent%3B%20text-align%3A%20left%3B%26quot%3B%20class%3D%26quot%3Bhljs-number%26quot%3B%26gt%3B50%26lt%3B%2Fspan%26gt%3B%26lt%3Bspan%20style%3D%26quot%3Btext-align%3A%20left%3B%26quot%3B%26gt%3B%5D%26lt%3B%2Fspan%26gt%3B%26lt%3Bbr%26gt%3B%26lt%3B%2Fdiv%26gt%3B%26lt%3B%2Fdiv%26gt%3B%22%20style%3D%22rounded%3D0%3BwhiteSpace%3Dwrap%3Bhtml%3D1%3B%22%20vertex%3D%221%22%20parent%3D%221%22%3E%3CmxGeometry%20x%3D%22299%22%20y%3D%22240%22%20width%3D%22230%22%20height%3D%2290%22%20as%3D%22geometry%22%2F%3E%3C%2FmxCell%3E%3C%2Froot%3E%3C%2FmxGraphMo&lt;/span&gt;&lt;span style=&quot;color: rgba(0, 0, 0, 0); font-family: monospace; font-size: 0px; text-align: start; text-wrap: nowrap; background-color: initial;&quot;&gt;%3CmxGraphModel%3E%3Croot%3E%3CmxCell%20id%3D%220%22%2F%3E%3CmxCell%20id%3D%221%22%20parent%3D%220%22%2F%3E%3CmxCell%20id%3D%222%22%20value%3D%22Initialization%26lt%3Bdiv%26gt%3B%26lt%3Bdiv%20style%3D%26quot%3Bline-height%3A%2019px%3B%26quot%3B%26gt%3B%26lt%3Bspan%20style%3D%26quot%3Btext-align%3A%20left%3B%26quot%3B%26gt%3BFirstName%5B%26lt%3B%2Fspan%26gt%3B%26lt%3Bspan%20style%3D%26quot%3Bborder%3A%200px%20solid%20rgb(227%2C%20227%2C%20227)%3B%20box-sizing%3A%20border-box%3B%20--tw-border-spacing-x%3A%200%3B%20--tw-border-spacing-y%3A%200%3B%20--tw-translate-x%3A%200%3B%20--tw-translate-y%3A%200%3B%20--tw-rotate%3A%200%3B%20--tw-skew-x%3A%200%3B%20--tw-skew-y%3A%200%3B%20--tw-scale-x%3A%201%3B%20--tw-scale-y%3A%201%3B%20--tw-pan-x%3A%20%3B%20--tw-pan-y%3A%20%3B%20--tw-pinch-zoom%3A%20%3B%20--tw-scroll-snap-strictness%3A%20proximity%3B%20--tw-gradient-from-position%3A%20%3B%20--tw-gradient-via-position%3A%20%3B%20--tw-gradient-to-position%3A%20%3B%20--tw-ordinal%3A%20%3B%20--tw-slashed-zero%3A%20%3B%20--tw-numeric-figure%3A%20%3B%20--tw-numeric-spacing%3A%20%3B%20--tw-numeric-fraction%3A%20%3B%20--tw-ring-inset%3A%20%3B%20--tw-ring-offset-width%3A%200px%3B%20--tw-ring-offset-color%3A%20%23fff%3B%20--tw-ring-color%3A%20rgba(69%2C89%2C164%2C.5)%3B%20--tw-ring-offset-shadow%3A%200%200%20%230000%3B%20--tw-ring-shadow%3A%200%200%20%230000%3B%20--tw-shadow%3A%200%200%20%230000%3B%20--tw-shadow-colored%3A%200%200%20%230000%3B%20--tw-blur%3A%20%3B%20--tw-brightness%3A%20%3B%20--tw-contrast%3A%20%3B%20--tw-grayscale%3A%20%3B%20--tw-hue-rotate%3A%20%3B%20--tw-invert%3A%20%3B%20--tw-saturate%3A%20%3B%20--tw-sepia%3A%20%3B%20--tw-drop-shadow%3A%20%3B%20--tw-backdrop-blur%3A%20%3B%20--tw-backdrop-brightness%3A%20%3B%20--tw-backdrop-contrast%3A%20%3B%20--tw-backdrop-grayscale%3A%20%3B%20--tw-backdrop-hue-rotate%3A%20%3B%20--tw-backdrop-invert%3A%20%3B%20--tw-backdrop-opacity%3A%20%3B%20--tw-backdrop-saturate%3A%20%3B%20--tw-backdrop-sepia%3A%20%3B%20--tw-contain-size%3A%20%3B%20--tw-contain-layout%3A%20%3B%20--tw-contain-paint%3A%20%3B%20--tw-contain-style%3A%20%3B%20scrollbar-color%3A%20var(--main-surface-tertiary)%20transparent%3B%20text-align%3A%20left%3B%26quot%3B%20class%3D%26quot%3Bhljs-number%26quot%3B%26gt%3B50%26lt%3B%2Fspan%26gt%3B%26lt%3Bspan%20style%3D%26quot%3Btext-align%3A%20left%3B%26quot%3B%26gt%3B%5D%2C%20%26lt%3B%2Fspan%26gt%3B%26lt%3Bspan%20style%3D%26quot%3Btext-align%3A%20left%3B%26quot%3B%26gt%3B%26amp%3Bnbsp%3BLastName%5B%26lt%3B%2Fspan%26gt%3B%26lt%3Bspan%20style%3D%26quot%3Bborder%3A%200px%20solid%20rgb(227%2C%20227%2C%20227)%3B%20box-sizing%3A%20border-box%3B%20--tw-border-spacing-x%3A%200%3B%20--tw-border-spacing-y%3A%200%3B%20--tw-translate-x%3A%200%3B%20--tw-translate-y%3A%200%3B%20--tw-rotate%3A%200%3B%20--tw-skew-x%3A%200%3B%20--tw-skew-y%3A%200%3B%20--tw-scale-x%3A%201%3B%20--tw-scale-y%3A%201%3B%20--tw-pan-x%3A%20%3B%20--tw-pan-y%3A%20%3B%20--tw-pinch-zoom%3A%20%3B%20--tw-scroll-snap-strictness%3A%20proximity%3B%20--tw-gradient-from-position%3A%20%3B%20--tw-gradient-via-position%3A%20%3B%20--tw-gradient-to-position%3A%20%3B%20--tw-ordinal%3A%20%3B%20--tw-slashed-zero%3A%20%3B%20--tw-numeric-figure%3A%20%3B%20--tw-numeric-spacing%3A%20%3B%20--tw-numeric-fraction%3A%20%3B%20--tw-ring-inset%3A%20%3B%20--tw-ring-offset-width%3A%200px%3B%20--tw-ring-offset-color%3A%20%23fff%3B%20--tw-ring-color%3A%20rgba(69%2C89%2C164%2C.5)%3B%20--tw-ring-offset-shadow%3A%200%200%20%230000%3B%20--tw-ring-shadow%3A%200%200%20%230000%3B%20--tw-shadow%3A%200%200%20%230000%3B%20--tw-shadow-colored%3A%200%200%20%230000%3B%20--tw-blur%3A%20%3B%20--tw-brightness%3A%20%3B%20--tw-contrast%3A%20%3B%20--tw-grayscale%3A%20%3B%20--tw-hue-rotate%3A%20%3B%20--tw-invert%3A%20%3B%20--tw-saturate%3A%20%3B%20--tw-sepia%3A%20%3B%20--tw-drop-shadow%3A%20%3B%20--tw-backdrop-blur%3A%20%3B%20--tw-backdrop-brightness%3A%20%3B%20--tw-backdrop-contrast%3A%20%3B%20--tw-backdrop-grayscale%3A%20%3B%20--tw-backdrop-hue-rotate%3A%20%3B%20--tw-backdrop-invert%3A%20%3B%20--tw-backdrop-opacity%3A%20%3B%20--tw-backdrop-saturate%3A%20%3B%20--tw-backdrop-sepia%3A%20%3B%20--tw-contain-size%3A%20%3B%20--tw-contain-layout%3A%20%3B%20--tw-contain-paint%3A%20%3B%20--tw-contain-style%3A%20%3B%20scrollbar-color%3A%20var(--main-surface-tertiary)%20transparent%3B%20text-align%3A%20left%3B%26quot%3B%20class%3D%26quot%3Bhljs-number%26quot%3B%26gt%3B50%26lt%3B%2Fspan%26gt%3B%26lt%3Bspan%20style%3D%26quot%3Btext-align%3A%20left%3B%26quot%3B%26gt%3B%5D%26lt%3B%2Fspan%26gt%3B%26lt%3Bbr%26gt%3B%26lt%3B%2Fdiv%26gt%3B%26lt%3B%2Fdiv%26gt%3B%22%20style%3D%22rounded%3D0%3BwhiteSpace%3Dwrap%3Bhtml%3D1%3B%22%20vertex%3D%221%22%20parent%3D%221%22%3E%3CmxGeometry%20x%3D%22299%22%20y%3D%22240%22%20width%3D%22230%22%20height%3D%2290%22%20as%3D%22geometry%22%2F%3E%3C%2FmxCell%3E%3C%2Froot%3E%3C%2FmxGraphModel%3E&lt;/span&gt;&lt;/div&gt;" style="shape=parallelogram;perimeter=parallelogramPerimeter;whiteSpace=wrap;html=1;fixedSize=1;" vertex="1" parent="1">
          <mxGeometry x="297" y="280" width="234" height="80" as="geometry" />
        </mxCell>
        <mxCell id="lgP_1gACHfZoU-txrUbW-7" value="" style="edgeStyle=orthogonalEdgeStyle;rounded=0;orthogonalLoop=1;jettySize=auto;html=1;" edge="1" parent="1" source="lgP_1gACHfZoU-txrUbW-5" target="lgP_1gACHfZoU-txrUbW-6">
          <mxGeometry relative="1" as="geometry" />
        </mxCell>
        <mxCell id="lgP_1gACHfZoU-txrUbW-5" value="&lt;div&gt;&lt;div style=&quot;line-height: 19px;&quot;&gt;รับค่าจากผู้ใช้&lt;/div&gt;&lt;/div&gt;&lt;div style=&quot;line-height: 19px;&quot;&gt;&lt;div style=&quot;line-height: 19px;&quot;&gt;&lt;span style=&quot;text-align: left;&quot;&gt;FirstName&lt;/span&gt;&lt;br&gt;&lt;/div&gt;&lt;/div&gt;&lt;div style=&quot;line-height: 19px;&quot;&gt;&lt;span style=&quot;color: rgba(0, 0, 0, 0); font-family: monospace; font-size: 0px; text-align: start; text-wrap: nowrap;&quot;&gt;%3CmxGraphModel%3E%3Croot%3E%3CmxCell%20id%3D%220%22%2F%3E%3CmxCell%20id%3D%221%22%20parent%3D%220%22%2F%3E%3CmxCell%20id%3D%222%22%20value%3D%22Initialization%26lt%3Bdiv%26gt%3B%26lt%3Bdiv%20style%3D%26quot%3Bline-height%3A%2019px%3B%26quot%3B%26gt%3B%26lt%3Bspan%20style%3D%26quot%3Btext-align%3A%20left%3B%26quot%3B%26gt%3BFirstName%5B%26lt%3B%2Fspan%26gt%3B%26lt%3Bspan%20style%3D%26quot%3Bborder%3A%200px%20solid%20rgb(227%2C%20227%2C%20227)%3B%20box-sizing%3A%20border-box%3B%20--tw-border-spacing-x%3A%200%3B%20--tw-border-spacing-y%3A%200%3B%20--tw-translate-x%3A%200%3B%20--tw-translate-y%3A%200%3B%20--tw-rotate%3A%200%3B%20--tw-skew-x%3A%200%3B%20--tw-skew-y%3A%200%3B%20--tw-scale-x%3A%201%3B%20--tw-scale-y%3A%201%3B%20--tw-pan-x%3A%20%3B%20--tw-pan-y%3A%20%3B%20--tw-pinch-zoom%3A%20%3B%20--tw-scroll-snap-strictness%3A%20proximity%3B%20--tw-gradient-from-position%3A%20%3B%20--tw-gradient-via-position%3A%20%3B%20--tw-gradient-to-position%3A%20%3B%20--tw-ordinal%3A%20%3B%20--tw-slashed-zero%3A%20%3B%20--tw-numeric-figure%3A%20%3B%20--tw-numeric-spacing%3A%20%3B%20--tw-numeric-fraction%3A%20%3B%20--tw-ring-inset%3A%20%3B%20--tw-ring-offset-width%3A%200px%3B%20--tw-ring-offset-color%3A%20%23fff%3B%20--tw-ring-color%3A%20rgba(69%2C89%2C164%2C.5)%3B%20--tw-ring-offset-shadow%3A%200%200%20%230000%3B%20--tw-ring-shadow%3A%200%200%20%230000%3B%20--tw-shadow%3A%200%200%20%230000%3B%20--tw-shadow-colored%3A%200%200%20%230000%3B%20--tw-blur%3A%20%3B%20--tw-brightness%3A%20%3B%20--tw-contrast%3A%20%3B%20--tw-grayscale%3A%20%3B%20--tw-hue-rotate%3A%20%3B%20--tw-invert%3A%20%3B%20--tw-saturate%3A%20%3B%20--tw-sepia%3A%20%3B%20--tw-drop-shadow%3A%20%3B%20--tw-backdrop-blur%3A%20%3B%20--tw-backdrop-brightness%3A%20%3B%20--tw-backdrop-contrast%3A%20%3B%20--tw-backdrop-grayscale%3A%20%3B%20--tw-backdrop-hue-rotate%3A%20%3B%20--tw-backdrop-invert%3A%20%3B%20--tw-backdrop-opacity%3A%20%3B%20--tw-backdrop-saturate%3A%20%3B%20--tw-backdrop-sepia%3A%20%3B%20--tw-contain-size%3A%20%3B%20--tw-contain-layout%3A%20%3B%20--tw-contain-paint%3A%20%3B%20--tw-contain-style%3A%20%3B%20scrollbar-color%3A%20var(--main-surface-tertiary)%20transparent%3B%20text-align%3A%20left%3B%26quot%3B%20class%3D%26quot%3Bhljs-number%26quot%3B%26gt%3B50%26lt%3B%2Fspan%26gt%3B%26lt%3Bspan%20style%3D%26quot%3Btext-align%3A%20left%3B%26quot%3B%26gt%3B%5D%2C%20%26lt%3B%2Fspan%26gt%3B%26lt%3Bspan%20style%3D%26quot%3Btext-align%3A%20left%3B%26quot%3B%26gt%3B%26amp%3Bnbsp%3BLastName%5B%26lt%3B%2Fspan%26gt%3B%26lt%3Bspan%20style%3D%26quot%3Bborder%3A%200px%20solid%20rgb(227%2C%20227%2C%20227)%3B%20box-sizing%3A%20border-box%3B%20--tw-border-spacing-x%3A%200%3B%20--tw-border-spacing-y%3A%200%3B%20--tw-translate-x%3A%200%3B%20--tw-translate-y%3A%200%3B%20--tw-rotate%3A%200%3B%20--tw-skew-x%3A%200%3B%20--tw-skew-y%3A%200%3B%20--tw-scale-x%3A%201%3B%20--tw-scale-y%3A%201%3B%20--tw-pan-x%3A%20%3B%20--tw-pan-y%3A%20%3B%20--tw-pinch-zoom%3A%20%3B%20--tw-scroll-snap-strictness%3A%20proximity%3B%20--tw-gradient-from-position%3A%20%3B%20--tw-gradient-via-position%3A%20%3B%20--tw-gradient-to-position%3A%20%3B%20--tw-ordinal%3A%20%3B%20--tw-slashed-zero%3A%20%3B%20--tw-numeric-figure%3A%20%3B%20--tw-numeric-spacing%3A%20%3B%20--tw-numeric-fraction%3A%20%3B%20--tw-ring-inset%3A%20%3B%20--tw-ring-offset-width%3A%200px%3B%20--tw-ring-offset-color%3A%20%23fff%3B%20--tw-ring-color%3A%20rgba(69%2C89%2C164%2C.5)%3B%20--tw-ring-offset-shadow%3A%200%200%20%230000%3B%20--tw-ring-shadow%3A%200%200%20%230000%3B%20--tw-shadow%3A%200%200%20%230000%3B%20--tw-shadow-colored%3A%200%200%20%230000%3B%20--tw-blur%3A%20%3B%20--tw-brightness%3A%20%3B%20--tw-contrast%3A%20%3B%20--tw-grayscale%3A%20%3B%20--tw-hue-rotate%3A%20%3B%20--tw-invert%3A%20%3B%20--tw-saturate%3A%20%3B%20--tw-sepia%3A%20%3B%20--tw-drop-shadow%3A%20%3B%20--tw-backdrop-blur%3A%20%3B%20--tw-backdrop-brightness%3A%20%3B%20--tw-backdrop-contrast%3A%20%3B%20--tw-backdrop-grayscale%3A%20%3B%20--tw-backdrop-hue-rotate%3A%20%3B%20--tw-backdrop-invert%3A%20%3B%20--tw-backdrop-opacity%3A%20%3B%20--tw-backdrop-saturate%3A%20%3B%20--tw-backdrop-sepia%3A%20%3B%20--tw-contain-size%3A%20%3B%20--tw-contain-layout%3A%20%3B%20--tw-contain-paint%3A%20%3B%20--tw-contain-style%3A%20%3B%20scrollbar-color%3A%20var(--main-surface-tertiary)%20transparent%3B%20text-align%3A%20left%3B%26quot%3B%20class%3D%26quot%3Bhljs-number%26quot%3B%26gt%3B50%26lt%3B%2Fspan%26gt%3B%26lt%3Bspan%20style%3D%26quot%3Btext-align%3A%20left%3B%26quot%3B%26gt%3B%5D%26lt%3B%2Fspan%26gt%3B%26lt%3Bbr%26gt%3B%26lt%3B%2Fdiv%26gt%3B%26lt%3B%2Fdiv%26gt%3B%22%20style%3D%22rounded%3D0%3BwhiteSpace%3Dwrap%3Bhtml%3D1%3B%22%20vertex%3D%221%22%20parent%3D%221%22%3E%3CmxGeometry%20x%3D%22299%22%20y%3D%22240%22%20width%3D%22230%22%20height%3D%2290%22%20as%3D%22geometry%22%2F%3E%3C%2FmxCell%3E%3C%2Froot%3E%3C%2FmxGraphMo&lt;/span&gt;&lt;span style=&quot;color: rgba(0, 0, 0, 0); font-family: monospace; font-size: 0px; text-align: start; text-wrap: nowrap; background-color: initial;&quot;&gt;%3CmxGraphModel%3E%3Croot%3E%3CmxCell%20id%3D%220%22%2F%3E%3CmxCell%20id%3D%221%22%20parent%3D%220%22%2F%3E%3CmxCell%20id%3D%222%22%20value%3D%22Initialization%26lt%3Bdiv%26gt%3B%26lt%3Bdiv%20style%3D%26quot%3Bline-height%3A%2019px%3B%26quot%3B%26gt%3B%26lt%3Bspan%20style%3D%26quot%3Btext-align%3A%20left%3B%26quot%3B%26gt%3BFirstName%5B%26lt%3B%2Fspan%26gt%3B%26lt%3Bspan%20style%3D%26quot%3Bborder%3A%200px%20solid%20rgb(227%2C%20227%2C%20227)%3B%20box-sizing%3A%20border-box%3B%20--tw-border-spacing-x%3A%200%3B%20--tw-border-spacing-y%3A%200%3B%20--tw-translate-x%3A%200%3B%20--tw-translate-y%3A%200%3B%20--tw-rotate%3A%200%3B%20--tw-skew-x%3A%200%3B%20--tw-skew-y%3A%200%3B%20--tw-scale-x%3A%201%3B%20--tw-scale-y%3A%201%3B%20--tw-pan-x%3A%20%3B%20--tw-pan-y%3A%20%3B%20--tw-pinch-zoom%3A%20%3B%20--tw-scroll-snap-strictness%3A%20proximity%3B%20--tw-gradient-from-position%3A%20%3B%20--tw-gradient-via-position%3A%20%3B%20--tw-gradient-to-position%3A%20%3B%20--tw-ordinal%3A%20%3B%20--tw-slashed-zero%3A%20%3B%20--tw-numeric-figure%3A%20%3B%20--tw-numeric-spacing%3A%20%3B%20--tw-numeric-fraction%3A%20%3B%20--tw-ring-inset%3A%20%3B%20--tw-ring-offset-width%3A%200px%3B%20--tw-ring-offset-color%3A%20%23fff%3B%20--tw-ring-color%3A%20rgba(69%2C89%2C164%2C.5)%3B%20--tw-ring-offset-shadow%3A%200%200%20%230000%3B%20--tw-ring-shadow%3A%200%200%20%230000%3B%20--tw-shadow%3A%200%200%20%230000%3B%20--tw-shadow-colored%3A%200%200%20%230000%3B%20--tw-blur%3A%20%3B%20--tw-brightness%3A%20%3B%20--tw-contrast%3A%20%3B%20--tw-grayscale%3A%20%3B%20--tw-hue-rotate%3A%20%3B%20--tw-invert%3A%20%3B%20--tw-saturate%3A%20%3B%20--tw-sepia%3A%20%3B%20--tw-drop-shadow%3A%20%3B%20--tw-backdrop-blur%3A%20%3B%20--tw-backdrop-brightness%3A%20%3B%20--tw-backdrop-contrast%3A%20%3B%20--tw-backdrop-grayscale%3A%20%3B%20--tw-backdrop-hue-rotate%3A%20%3B%20--tw-backdrop-invert%3A%20%3B%20--tw-backdrop-opacity%3A%20%3B%20--tw-backdrop-saturate%3A%20%3B%20--tw-backdrop-sepia%3A%20%3B%20--tw-contain-size%3A%20%3B%20--tw-contain-layout%3A%20%3B%20--tw-contain-paint%3A%20%3B%20--tw-contain-style%3A%20%3B%20scrollbar-color%3A%20var(--main-surface-tertiary)%20transparent%3B%20text-align%3A%20left%3B%26quot%3B%20class%3D%26quot%3Bhljs-number%26quot%3B%26gt%3B50%26lt%3B%2Fspan%26gt%3B%26lt%3Bspan%20style%3D%26quot%3Btext-align%3A%20left%3B%26quot%3B%26gt%3B%5D%2C%20%26lt%3B%2Fspan%26gt%3B%26lt%3Bspan%20style%3D%26quot%3Btext-align%3A%20left%3B%26quot%3B%26gt%3B%26amp%3Bnbsp%3BLastName%5B%26lt%3B%2Fspan%26gt%3B%26lt%3Bspan%20style%3D%26quot%3Bborder%3A%200px%20solid%20rgb(227%2C%20227%2C%20227)%3B%20box-sizing%3A%20border-box%3B%20--tw-border-spacing-x%3A%200%3B%20--tw-border-spacing-y%3A%200%3B%20--tw-translate-x%3A%200%3B%20--tw-translate-y%3A%200%3B%20--tw-rotate%3A%200%3B%20--tw-skew-x%3A%200%3B%20--tw-skew-y%3A%200%3B%20--tw-scale-x%3A%201%3B%20--tw-scale-y%3A%201%3B%20--tw-pan-x%3A%20%3B%20--tw-pan-y%3A%20%3B%20--tw-pinch-zoom%3A%20%3B%20--tw-scroll-snap-strictness%3A%20proximity%3B%20--tw-gradient-from-position%3A%20%3B%20--tw-gradient-via-position%3A%20%3B%20--tw-gradient-to-position%3A%20%3B%20--tw-ordinal%3A%20%3B%20--tw-slashed-zero%3A%20%3B%20--tw-numeric-figure%3A%20%3B%20--tw-numeric-spacing%3A%20%3B%20--tw-numeric-fraction%3A%20%3B%20--tw-ring-inset%3A%20%3B%20--tw-ring-offset-width%3A%200px%3B%20--tw-ring-offset-color%3A%20%23fff%3B%20--tw-ring-color%3A%20rgba(69%2C89%2C164%2C.5)%3B%20--tw-ring-offset-shadow%3A%200%200%20%230000%3B%20--tw-ring-shadow%3A%200%200%20%230000%3B%20--tw-shadow%3A%200%200%20%230000%3B%20--tw-shadow-colored%3A%200%200%20%230000%3B%20--tw-blur%3A%20%3B%20--tw-brightness%3A%20%3B%20--tw-contrast%3A%20%3B%20--tw-grayscale%3A%20%3B%20--tw-hue-rotate%3A%20%3B%20--tw-invert%3A%20%3B%20--tw-saturate%3A%20%3B%20--tw-sepia%3A%20%3B%20--tw-drop-shadow%3A%20%3B%20--tw-backdrop-blur%3A%20%3B%20--tw-backdrop-brightness%3A%20%3B%20--tw-backdrop-contrast%3A%20%3B%20--tw-backdrop-grayscale%3A%20%3B%20--tw-backdrop-hue-rotate%3A%20%3B%20--tw-backdrop-invert%3A%20%3B%20--tw-backdrop-opacity%3A%20%3B%20--tw-backdrop-saturate%3A%20%3B%20--tw-backdrop-sepia%3A%20%3B%20--tw-contain-size%3A%20%3B%20--tw-contain-layout%3A%20%3B%20--tw-contain-paint%3A%20%3B%20--tw-contain-style%3A%20%3B%20scrollbar-color%3A%20var(--main-surface-tertiary)%20transparent%3B%20text-align%3A%20left%3B%26quot%3B%20class%3D%26quot%3Bhljs-number%26quot%3B%26gt%3B50%26lt%3B%2Fspan%26gt%3B%26lt%3Bspan%20style%3D%26quot%3Btext-align%3A%20left%3B%26quot%3B%26gt%3B%5D%26lt%3B%2Fspan%26gt%3B%26lt%3Bbr%26gt%3B%26lt%3B%2Fdiv%26gt%3B%26lt%3B%2Fdiv%26gt%3B%22%20style%3D%22rounded%3D0%3BwhiteSpace%3Dwrap%3Bhtml%3D1%3B%22%20vertex%3D%221%22%20parent%3D%221%22%3E%3CmxGeometry%20x%3D%22299%22%20y%3D%22240%22%20width%3D%22230%22%20height%3D%2290%22%20as%3D%22geometry%22%2F%3E%3C%2FmxCell%3E%3C%2Froot%3E%3C%2FmxGraphModel%3E&lt;/span&gt;&lt;/div&gt;" style="shape=parallelogram;perimeter=parallelogramPerimeter;whiteSpace=wrap;html=1;fixedSize=1;" vertex="1" parent="1">
          <mxGeometry x="297" y="430" width="234" height="80" as="geometry" />
        </mxCell>
        <mxCell id="lgP_1gACHfZoU-txrUbW-12" value="" style="edgeStyle=orthogonalEdgeStyle;rounded=0;orthogonalLoop=1;jettySize=auto;html=1;" edge="1" parent="1" source="lgP_1gACHfZoU-txrUbW-6" target="lgP_1gACHfZoU-txrUbW-11">
          <mxGeometry relative="1" as="geometry" />
        </mxCell>
        <mxCell id="lgP_1gACHfZoU-txrUbW-6" value="&lt;div&gt;&lt;div style=&quot;line-height: 19px;&quot;&gt;แสดงผล&lt;/div&gt;&lt;/div&gt;&lt;div style=&quot;line-height: 19px;&quot;&gt;&lt;div style=&quot;line-height: 19px;&quot;&gt;Last Name:&amp;nbsp;&lt;/div&gt;&lt;/div&gt;&lt;div style=&quot;line-height: 19px;&quot;&gt;&lt;span style=&quot;text-align: start; text-wrap: nowrap; font-size: 0px; font-family: monospace; color: rgba(0, 0, 0, 0);&quot;&gt;%3CmxGraphModel%3E%3Croot%3E%3CmxCell%20id%3D%220%22%2F%3E%3CmxCell%20id%3D%221%22%20parent%3D%220%22%2F%3E%3CmxCell%20id%3D%222%22%20value%3D%22Initialization%26lt%3Bdiv%26gt%3B%26lt%3Bdiv%20style%3D%26quot%3Bline-height%3A%2019px%3B%26quot%3B%26gt%3B%26lt%3Bspan%20style%3D%26quot%3Btext-align%3A%20left%3B%26quot%3B%26gt%3BFirstName%5B%26lt%3B%2Fspan%26gt%3B%26lt%3Bspan%20style%3D%26quot%3Bborder%3A%200px%20solid%20rgb(227%2C%20227%2C%20227)%3B%20box-sizing%3A%20border-box%3B%20--tw-border-spacing-x%3A%200%3B%20--tw-border-spacing-y%3A%200%3B%20--tw-translate-x%3A%200%3B%20--tw-translate-y%3A%200%3B%20--tw-rotate%3A%200%3B%20--tw-skew-x%3A%200%3B%20--tw-skew-y%3A%200%3B%20--tw-scale-x%3A%201%3B%20--tw-scale-y%3A%201%3B%20--tw-pan-x%3A%20%3B%20--tw-pan-y%3A%20%3B%20--tw-pinch-zoom%3A%20%3B%20--tw-scroll-snap-strictness%3A%20proximity%3B%20--tw-gradient-from-position%3A%20%3B%20--tw-gradient-via-position%3A%20%3B%20--tw-gradient-to-position%3A%20%3B%20--tw-ordinal%3A%20%3B%20--tw-slashed-zero%3A%20%3B%20--tw-numeric-figure%3A%20%3B%20--tw-numeric-spacing%3A%20%3B%20--tw-numeric-fraction%3A%20%3B%20--tw-ring-inset%3A%20%3B%20--tw-ring-offset-width%3A%200px%3B%20--tw-ring-offset-color%3A%20%23fff%3B%20--tw-ring-color%3A%20rgba(69%2C89%2C164%2C.5)%3B%20--tw-ring-offset-shadow%3A%200%200%20%230000%3B%20--tw-ring-shadow%3A%200%200%20%230000%3B%20--tw-shadow%3A%200%200%20%230000%3B%20--tw-shadow-colored%3A%200%200%20%230000%3B%20--tw-blur%3A%20%3B%20--tw-brightness%3A%20%3B%20--tw-contrast%3A%20%3B%20--tw-grayscale%3A%20%3B%20--tw-hue-rotate%3A%20%3B%20--tw-invert%3A%20%3B%20--tw-saturate%3A%20%3B%20--tw-sepia%3A%20%3B%20--tw-drop-shadow%3A%20%3B%20--tw-backdrop-blur%3A%20%3B%20--tw-backdrop-brightness%3A%20%3B%20--tw-backdrop-contrast%3A%20%3B%20--tw-backdrop-grayscale%3A%20%3B%20--tw-backdrop-hue-rotate%3A%20%3B%20--tw-backdrop-invert%3A%20%3B%20--tw-backdrop-opacity%3A%20%3B%20--tw-backdrop-saturate%3A%20%3B%20--tw-backdrop-sepia%3A%20%3B%20--tw-contain-size%3A%20%3B%20--tw-contain-layout%3A%20%3B%20--tw-contain-paint%3A%20%3B%20--tw-contain-style%3A%20%3B%20scrollbar-color%3A%20var(--main-surface-tertiary)%20transparent%3B%20text-align%3A%20left%3B%26quot%3B%20class%3D%26quot%3Bhljs-number%26quot%3B%26gt%3B50%26lt%3B%2Fspan%26gt%3B%26lt%3Bspan%20style%3D%26quot%3Btext-align%3A%20left%3B%26quot%3B%26gt%3B%5D%2C%20%26lt%3B%2Fspan%26gt%3B%26lt%3Bspan%20style%3D%26quot%3Btext-align%3A%20left%3B%26quot%3B%26gt%3B%26amp%3Bnbsp%3BLastName%5B%26lt%3B%2Fspan%26gt%3B%26lt%3Bspan%20style%3D%26quot%3Bborder%3A%200px%20solid%20rgb(227%2C%20227%2C%20227)%3B%20box-sizing%3A%20border-box%3B%20--tw-border-spacing-x%3A%200%3B%20--tw-border-spacing-y%3A%200%3B%20--tw-translate-x%3A%200%3B%20--tw-translate-y%3A%200%3B%20--tw-rotate%3A%200%3B%20--tw-skew-x%3A%200%3B%20--tw-skew-y%3A%200%3B%20--tw-scale-x%3A%201%3B%20--tw-scale-y%3A%201%3B%20--tw-pan-x%3A%20%3B%20--tw-pan-y%3A%20%3B%20--tw-pinch-zoom%3A%20%3B%20--tw-scroll-snap-strictness%3A%20proximity%3B%20--tw-gradient-from-position%3A%20%3B%20--tw-gradient-via-position%3A%20%3B%20--tw-gradient-to-position%3A%20%3B%20--tw-ordinal%3A%20%3B%20--tw-slashed-zero%3A%20%3B%20--tw-numeric-figure%3A%20%3B%20--tw-numeric-spacing%3A%20%3B%20--tw-numeric-fraction%3A%20%3B%20--tw-ring-inset%3A%20%3B%20--tw-ring-offset-width%3A%200px%3B%20--tw-ring-offset-color%3A%20%23fff%3B%20--tw-ring-color%3A%20rgba(69%2C89%2C164%2C.5)%3B%20--tw-ring-offset-shadow%3A%200%200%20%230000%3B%20--tw-ring-shadow%3A%200%200%20%230000%3B%20--tw-shadow%3A%200%200%20%230000%3B%20--tw-shadow-colored%3A%200%200%20%230000%3B%20--tw-blur%3A%20%3B%20--tw-brightness%3A%20%3B%20--tw-contrast%3A%20%3B%20--tw-grayscale%3A%20%3B%20--tw-hue-rotate%3A%20%3B%20--tw-invert%3A%20%3B%20--tw-saturate%3A%20%3B%20--tw-sepia%3A%20%3B%20--tw-drop-shadow%3A%20%3B%20--tw-backdrop-blur%3A%20%3B%20--tw-backdrop-brightness%3A%20%3B%20--tw-backdrop-contrast%3A%20%3B%20--tw-backdrop-grayscale%3A%20%3B%20--tw-backdrop-hue-rotate%3A%20%3B%20--tw-backdrop-invert%3A%20%3B%20--tw-backdrop-opacity%3A%20%3B%20--tw-backdrop-saturate%3A%20%3B%20--tw-backdrop-sepia%3A%20%3B%20--tw-contain-size%3A%20%3B%20--tw-contain-layout%3A%20%3B%20--tw-contain-paint%3A%20%3B%20--tw-contain-style%3A%20%3B%20scrollbar-color%3A%20var(--main-surface-tertiary)%20transparent%3B%20text-align%3A%20left%3B%26quot%3B%20class%3D%26quot%3Bhljs-number%26quot%3B%26gt%3B50%26lt%3B%2Fspan%26gt%3B%26lt%3Bspan%20style%3D%26quot%3Btext-align%3A%20left%3B%26quot%3B%26gt%3B%5D%26lt%3B%2Fspan%26gt%3B%26lt%3Bbr%26gt%3B%26lt%3B%2Fdiv%26gt%3B%26lt%3B%2Fdiv%26gt%3B%22%20style%3D%22rounded%3D0%3BwhiteSpace%3Dwrap%3Bhtml%3D1%3B%22%20vertex%3D%221%22%20parent%3D%221%22%3E%3CmxGeometry%20x%3D%22299%22%20y%3D%22240%22%20width%3D%22230%22%20height%3D%2290%22%20as%3D%22geometry%22%2F%3E%3C%2FmxCell%3E%3C%2Froot%3E%3C%2FmxGraphMo&lt;/span&gt;&lt;span style=&quot;text-align: start; background-color: initial; text-wrap: nowrap; font-size: 0px; font-family: monospace; color: rgba(0, 0, 0, 0);&quot;&gt;%3CmxGraphModel%3E%3Croot%3E%3CmxCell%20id%3D%220%22%2F%3E%3CmxCell%20id%3D%221%22%20parent%3D%220%22%2F%3E%3CmxCell%20id%3D%222%22%20value%3D%22Initialization%26lt%3Bdiv%26gt%3B%26lt%3Bdiv%20style%3D%26quot%3Bline-height%3A%2019px%3B%26quot%3B%26gt%3B%26lt%3Bspan%20style%3D%26quot%3Btext-align%3A%20left%3B%26quot%3B%26gt%3BFirstName%5B%26lt%3B%2Fspan%26gt%3B%26lt%3Bspan%20style%3D%26quot%3Bborder%3A%200px%20solid%20rgb(227%2C%20227%2C%20227)%3B%20box-sizing%3A%20border-box%3B%20--tw-border-spacing-x%3A%200%3B%20--tw-border-spacing-y%3A%200%3B%20--tw-translate-x%3A%200%3B%20--tw-translate-y%3A%200%3B%20--tw-rotate%3A%200%3B%20--tw-skew-x%3A%200%3B%20--tw-skew-y%3A%200%3B%20--tw-scale-x%3A%201%3B%20--tw-scale-y%3A%201%3B%20--tw-pan-x%3A%20%3B%20--tw-pan-y%3A%20%3B%20--tw-pinch-zoom%3A%20%3B%20--tw-scroll-snap-strictness%3A%20proximity%3B%20--tw-gradient-from-position%3A%20%3B%20--tw-gradient-via-position%3A%20%3B%20--tw-gradient-to-position%3A%20%3B%20--tw-ordinal%3A%20%3B%20--tw-slashed-zero%3A%20%3B%20--tw-numeric-figure%3A%20%3B%20--tw-numeric-spacing%3A%20%3B%20--tw-numeric-fraction%3A%20%3B%20--tw-ring-inset%3A%20%3B%20--tw-ring-offset-width%3A%200px%3B%20--tw-ring-offset-color%3A%20%23fff%3B%20--tw-ring-color%3A%20rgba(69%2C89%2C164%2C.5)%3B%20--tw-ring-offset-shadow%3A%200%200%20%230000%3B%20--tw-ring-shadow%3A%200%200%20%230000%3B%20--tw-shadow%3A%200%200%20%230000%3B%20--tw-shadow-colored%3A%200%200%20%230000%3B%20--tw-blur%3A%20%3B%20--tw-brightness%3A%20%3B%20--tw-contrast%3A%20%3B%20--tw-grayscale%3A%20%3B%20--tw-hue-rotate%3A%20%3B%20--tw-invert%3A%20%3B%20--tw-saturate%3A%20%3B%20--tw-sepia%3A%20%3B%20--tw-drop-shadow%3A%20%3B%20--tw-backdrop-blur%3A%20%3B%20--tw-backdrop-brightness%3A%20%3B%20--tw-backdrop-contrast%3A%20%3B%20--tw-backdrop-grayscale%3A%20%3B%20--tw-backdrop-hue-rotate%3A%20%3B%20--tw-backdrop-invert%3A%20%3B%20--tw-backdrop-opacity%3A%20%3B%20--tw-backdrop-saturate%3A%20%3B%20--tw-backdrop-sepia%3A%20%3B%20--tw-contain-size%3A%20%3B%20--tw-contain-layout%3A%20%3B%20--tw-contain-paint%3A%20%3B%20--tw-contain-style%3A%20%3B%20scrollbar-color%3A%20var(--main-surface-tertiary)%20transparent%3B%20text-align%3A%20left%3B%26quot%3B%20class%3D%26quot%3Bhljs-number%26quot%3B%26gt%3B50%26lt%3B%2Fspan%26gt%3B%26lt%3Bspan%20style%3D%26quot%3Btext-align%3A%20left%3B%26quot%3B%26gt%3B%5D%2C%20%26lt%3B%2Fspan%26gt%3B%26lt%3Bspan%20style%3D%26quot%3Btext-align%3A%20left%3B%26quot%3B%26gt%3B%26amp%3Bnbsp%3BLastName%5B%26lt%3B%2Fspan%26gt%3B%26lt%3Bspan%20style%3D%26quot%3Bborder%3A%200px%20solid%20rgb(227%2C%20227%2C%20227)%3B%20box-sizing%3A%20border-box%3B%20--tw-border-spacing-x%3A%200%3B%20--tw-border-spacing-y%3A%200%3B%20--tw-translate-x%3A%200%3B%20--tw-translate-y%3A%200%3B%20--tw-rotate%3A%200%3B%20--tw-skew-x%3A%200%3B%20--tw-skew-y%3A%200%3B%20--tw-scale-x%3A%201%3B%20--tw-scale-y%3A%201%3B%20--tw-pan-x%3A%20%3B%20--tw-pan-y%3A%20%3B%20--tw-pinch-zoom%3A%20%3B%20--tw-scroll-snap-strictness%3A%20proximity%3B%20--tw-gradient-from-position%3A%20%3B%20--tw-gradient-via-position%3A%20%3B%20--tw-gradient-to-position%3A%20%3B%20--tw-ordinal%3A%20%3B%20--tw-slashed-zero%3A%20%3B%20--tw-numeric-figure%3A%20%3B%20--tw-numeric-spacing%3A%20%3B%20--tw-numeric-fraction%3A%20%3B%20--tw-ring-inset%3A%20%3B%20--tw-ring-offset-width%3A%200px%3B%20--tw-ring-offset-color%3A%20%23fff%3B%20--tw-ring-color%3A%20rgba(69%2C89%2C164%2C.5)%3B%20--tw-ring-offset-shadow%3A%200%200%20%230000%3B%20--tw-ring-shadow%3A%200%200%20%230000%3B%20--tw-shadow%3A%200%200%20%230000%3B%20--tw-shadow-colored%3A%200%200%20%230000%3B%20--tw-blur%3A%20%3B%20--tw-brightness%3A%20%3B%20--tw-contrast%3A%20%3B%20--tw-grayscale%3A%20%3B%20--tw-hue-rotate%3A%20%3B%20--tw-invert%3A%20%3B%20--tw-saturate%3A%20%3B%20--tw-sepia%3A%20%3B%20--tw-drop-shadow%3A%20%3B%20--tw-backdrop-blur%3A%20%3B%20--tw-backdrop-brightness%3A%20%3B%20--tw-backdrop-contrast%3A%20%3B%20--tw-backdrop-grayscale%3A%20%3B%20--tw-backdrop-hue-rotate%3A%20%3B%20--tw-backdrop-invert%3A%20%3B%20--tw-backdrop-opacity%3A%20%3B%20--tw-backdrop-saturate%3A%20%3B%20--tw-backdrop-sepia%3A%20%3B%20--tw-contain-size%3A%20%3B%20--tw-contain-layout%3A%20%3B%20--tw-contain-paint%3A%20%3B%20--tw-contain-style%3A%20%3B%20scrollbar-color%3A%20var(--main-surface-tertiary)%20transparent%3B%20text-align%3A%20left%3B%26quot%3B%20class%3D%26quot%3Bhljs-number%26quot%3B%26gt%3B50%26lt%3B%2Fspan%26gt%3B%26lt%3Bspan%20style%3D%26quot%3Btext-align%3A%20left%3B%26quot%3B%26gt%3B%5D%26lt%3B%2Fspan%26gt%3B%26lt%3Bbr%26gt%3B%26lt%3B%2Fdiv%26gt%3B%26lt%3B%2Fdiv%26gt%3B%22%20style%3D%22rounded%3D0%3BwhiteSpace%3Dwrap%3Bhtml%3D1%3B%22%20vertex%3D%221%22%20parent%3D%221%22%3E%3CmxGeometry%20x%3D%22299%22%20y%3D%22240%22%20width%3D%22230%22%20height%3D%2290%22%20as%3D%22geometry%22%2F%3E%3C%2FmxCell%3E%3C%2Froot%3E%3C%2FmxGraphModel%3E&lt;/span&gt;&lt;/div&gt;" style="shape=parallelogram;perimeter=parallelogramPerimeter;whiteSpace=wrap;html=1;fixedSize=1;" vertex="1" parent="1">
          <mxGeometry x="297" y="585" width="234" height="80" as="geometry" />
        </mxCell>
        <mxCell id="lgP_1gACHfZoU-txrUbW-14" value="" style="edgeStyle=orthogonalEdgeStyle;rounded=0;orthogonalLoop=1;jettySize=auto;html=1;" edge="1" parent="1" source="lgP_1gACHfZoU-txrUbW-11" target="lgP_1gACHfZoU-txrUbW-13">
          <mxGeometry relative="1" as="geometry" />
        </mxCell>
        <mxCell id="lgP_1gACHfZoU-txrUbW-11" value="&lt;div&gt;&lt;div style=&quot;line-height: 19px;&quot;&gt;รับค่าจากผู้ใช้&lt;/div&gt;&lt;/div&gt;&lt;div style=&quot;line-height: 19px;&quot;&gt;&lt;div style=&quot;line-height: 19px;&quot;&gt;&lt;div style=&quot;line-height: 19px;&quot;&gt;LastName&lt;/div&gt;&lt;/div&gt;&lt;/div&gt;&lt;div style=&quot;line-height: 19px;&quot;&gt;&lt;span style=&quot;color: rgba(0, 0, 0, 0); font-family: monospace; font-size: 0px; text-align: start; text-wrap: nowrap;&quot;&gt;%3CmxGraphModel%3E%3Croot%3E%3CmxCell%20id%3D%220%22%2F%3E%3CmxCell%20id%3D%221%22%20parent%3D%220%22%2F%3E%3CmxCell%20id%3D%222%22%20value%3D%22Initialization%26lt%3Bdiv%26gt%3B%26lt%3Bdiv%20style%3D%26quot%3Bline-height%3A%2019px%3B%26quot%3B%26gt%3B%26lt%3Bspan%20style%3D%26quot%3Btext-align%3A%20left%3B%26quot%3B%26gt%3BFirstName%5B%26lt%3B%2Fspan%26gt%3B%26lt%3Bspan%20style%3D%26quot%3Bborder%3A%200px%20solid%20rgb(227%2C%20227%2C%20227)%3B%20box-sizing%3A%20border-box%3B%20--tw-border-spacing-x%3A%200%3B%20--tw-border-spacing-y%3A%200%3B%20--tw-translate-x%3A%200%3B%20--tw-translate-y%3A%200%3B%20--tw-rotate%3A%200%3B%20--tw-skew-x%3A%200%3B%20--tw-skew-y%3A%200%3B%20--tw-scale-x%3A%201%3B%20--tw-scale-y%3A%201%3B%20--tw-pan-x%3A%20%3B%20--tw-pan-y%3A%20%3B%20--tw-pinch-zoom%3A%20%3B%20--tw-scroll-snap-strictness%3A%20proximity%3B%20--tw-gradient-from-position%3A%20%3B%20--tw-gradient-via-position%3A%20%3B%20--tw-gradient-to-position%3A%20%3B%20--tw-ordinal%3A%20%3B%20--tw-slashed-zero%3A%20%3B%20--tw-numeric-figure%3A%20%3B%20--tw-numeric-spacing%3A%20%3B%20--tw-numeric-fraction%3A%20%3B%20--tw-ring-inset%3A%20%3B%20--tw-ring-offset-width%3A%200px%3B%20--tw-ring-offset-color%3A%20%23fff%3B%20--tw-ring-color%3A%20rgba(69%2C89%2C164%2C.5)%3B%20--tw-ring-offset-shadow%3A%200%200%20%230000%3B%20--tw-ring-shadow%3A%200%200%20%230000%3B%20--tw-shadow%3A%200%200%20%230000%3B%20--tw-shadow-colored%3A%200%200%20%230000%3B%20--tw-blur%3A%20%3B%20--tw-brightness%3A%20%3B%20--tw-contrast%3A%20%3B%20--tw-grayscale%3A%20%3B%20--tw-hue-rotate%3A%20%3B%20--tw-invert%3A%20%3B%20--tw-saturate%3A%20%3B%20--tw-sepia%3A%20%3B%20--tw-drop-shadow%3A%20%3B%20--tw-backdrop-blur%3A%20%3B%20--tw-backdrop-brightness%3A%20%3B%20--tw-backdrop-contrast%3A%20%3B%20--tw-backdrop-grayscale%3A%20%3B%20--tw-backdrop-hue-rotate%3A%20%3B%20--tw-backdrop-invert%3A%20%3B%20--tw-backdrop-opacity%3A%20%3B%20--tw-backdrop-saturate%3A%20%3B%20--tw-backdrop-sepia%3A%20%3B%20--tw-contain-size%3A%20%3B%20--tw-contain-layout%3A%20%3B%20--tw-contain-paint%3A%20%3B%20--tw-contain-style%3A%20%3B%20scrollbar-color%3A%20var(--main-surface-tertiary)%20transparent%3B%20text-align%3A%20left%3B%26quot%3B%20class%3D%26quot%3Bhljs-number%26quot%3B%26gt%3B50%26lt%3B%2Fspan%26gt%3B%26lt%3Bspan%20style%3D%26quot%3Btext-align%3A%20left%3B%26quot%3B%26gt%3B%5D%2C%20%26lt%3B%2Fspan%26gt%3B%26lt%3Bspan%20style%3D%26quot%3Btext-align%3A%20left%3B%26quot%3B%26gt%3B%26amp%3Bnbsp%3BLastName%5B%26lt%3B%2Fspan%26gt%3B%26lt%3Bspan%20style%3D%26quot%3Bborder%3A%200px%20solid%20rgb(227%2C%20227%2C%20227)%3B%20box-sizing%3A%20border-box%3B%20--tw-border-spacing-x%3A%200%3B%20--tw-border-spacing-y%3A%200%3B%20--tw-translate-x%3A%200%3B%20--tw-translate-y%3A%200%3B%20--tw-rotate%3A%200%3B%20--tw-skew-x%3A%200%3B%20--tw-skew-y%3A%200%3B%20--tw-scale-x%3A%201%3B%20--tw-scale-y%3A%201%3B%20--tw-pan-x%3A%20%3B%20--tw-pan-y%3A%20%3B%20--tw-pinch-zoom%3A%20%3B%20--tw-scroll-snap-strictness%3A%20proximity%3B%20--tw-gradient-from-position%3A%20%3B%20--tw-gradient-via-position%3A%20%3B%20--tw-gradient-to-position%3A%20%3B%20--tw-ordinal%3A%20%3B%20--tw-slashed-zero%3A%20%3B%20--tw-numeric-figure%3A%20%3B%20--tw-numeric-spacing%3A%20%3B%20--tw-numeric-fraction%3A%20%3B%20--tw-ring-inset%3A%20%3B%20--tw-ring-offset-width%3A%200px%3B%20--tw-ring-offset-color%3A%20%23fff%3B%20--tw-ring-color%3A%20rgba(69%2C89%2C164%2C.5)%3B%20--tw-ring-offset-shadow%3A%200%200%20%230000%3B%20--tw-ring-shadow%3A%200%200%20%230000%3B%20--tw-shadow%3A%200%200%20%230000%3B%20--tw-shadow-colored%3A%200%200%20%230000%3B%20--tw-blur%3A%20%3B%20--tw-brightness%3A%20%3B%20--tw-contrast%3A%20%3B%20--tw-grayscale%3A%20%3B%20--tw-hue-rotate%3A%20%3B%20--tw-invert%3A%20%3B%20--tw-saturate%3A%20%3B%20--tw-sepia%3A%20%3B%20--tw-drop-shadow%3A%20%3B%20--tw-backdrop-blur%3A%20%3B%20--tw-backdrop-brightness%3A%20%3B%20--tw-backdrop-contrast%3A%20%3B%20--tw-backdrop-grayscale%3A%20%3B%20--tw-backdrop-hue-rotate%3A%20%3B%20--tw-backdrop-invert%3A%20%3B%20--tw-backdrop-opacity%3A%20%3B%20--tw-backdrop-saturate%3A%20%3B%20--tw-backdrop-sepia%3A%20%3B%20--tw-contain-size%3A%20%3B%20--tw-contain-layout%3A%20%3B%20--tw-contain-paint%3A%20%3B%20--tw-contain-style%3A%20%3B%20scrollbar-color%3A%20var(--main-surface-tertiary)%20transparent%3B%20text-align%3A%20left%3B%26quot%3B%20class%3D%26quot%3Bhljs-number%26quot%3B%26gt%3B50%26lt%3B%2Fspan%26gt%3B%26lt%3Bspan%20style%3D%26quot%3Btext-align%3A%20left%3B%26quot%3B%26gt%3B%5D%26lt%3B%2Fspan%26gt%3B%26lt%3Bbr%26gt%3B%26lt%3B%2Fdiv%26gt%3B%26lt%3B%2Fdiv%26gt%3B%22%20style%3D%22rounded%3D0%3BwhiteSpace%3Dwrap%3Bhtml%3D1%3B%22%20vertex%3D%221%22%20parent%3D%221%22%3E%3CmxGeometry%20x%3D%22299%22%20y%3D%22240%22%20width%3D%22230%22%20height%3D%2290%22%20as%3D%22geometry%22%2F%3E%3C%2FmxCell%3E%3C%2Froot%3E%3C%2FmxGraphMo&lt;/span&gt;&lt;span style=&quot;color: rgba(0, 0, 0, 0); font-family: monospace; font-size: 0px; text-align: start; text-wrap: nowrap; background-color: initial;&quot;&gt;%3CmxGraphModel%3E%3Croot%3E%3CmxCell%20id%3D%220%22%2F%3E%3CmxCell%20id%3D%221%22%20parent%3D%220%22%2F%3E%3CmxCell%20id%3D%222%22%20value%3D%22Initialization%26lt%3Bdiv%26gt%3B%26lt%3Bdiv%20style%3D%26quot%3Bline-height%3A%2019px%3B%26quot%3B%26gt%3B%26lt%3Bspan%20style%3D%26quot%3Btext-align%3A%20left%3B%26quot%3B%26gt%3BFirstName%5B%26lt%3B%2Fspan%26gt%3B%26lt%3Bspan%20style%3D%26quot%3Bborder%3A%200px%20solid%20rgb(227%2C%20227%2C%20227)%3B%20box-sizing%3A%20border-box%3B%20--tw-border-spacing-x%3A%200%3B%20--tw-border-spacing-y%3A%200%3B%20--tw-translate-x%3A%200%3B%20--tw-translate-y%3A%200%3B%20--tw-rotate%3A%200%3B%20--tw-skew-x%3A%200%3B%20--tw-skew-y%3A%200%3B%20--tw-scale-x%3A%201%3B%20--tw-scale-y%3A%201%3B%20--tw-pan-x%3A%20%3B%20--tw-pan-y%3A%20%3B%20--tw-pinch-zoom%3A%20%3B%20--tw-scroll-snap-strictness%3A%20proximity%3B%20--tw-gradient-from-position%3A%20%3B%20--tw-gradient-via-position%3A%20%3B%20--tw-gradient-to-position%3A%20%3B%20--tw-ordinal%3A%20%3B%20--tw-slashed-zero%3A%20%3B%20--tw-numeric-figure%3A%20%3B%20--tw-numeric-spacing%3A%20%3B%20--tw-numeric-fraction%3A%20%3B%20--tw-ring-inset%3A%20%3B%20--tw-ring-offset-width%3A%200px%3B%20--tw-ring-offset-color%3A%20%23fff%3B%20--tw-ring-color%3A%20rgba(69%2C89%2C164%2C.5)%3B%20--tw-ring-offset-shadow%3A%200%200%20%230000%3B%20--tw-ring-shadow%3A%200%200%20%230000%3B%20--tw-shadow%3A%200%200%20%230000%3B%20--tw-shadow-colored%3A%200%200%20%230000%3B%20--tw-blur%3A%20%3B%20--tw-brightness%3A%20%3B%20--tw-contrast%3A%20%3B%20--tw-grayscale%3A%20%3B%20--tw-hue-rotate%3A%20%3B%20--tw-invert%3A%20%3B%20--tw-saturate%3A%20%3B%20--tw-sepia%3A%20%3B%20--tw-drop-shadow%3A%20%3B%20--tw-backdrop-blur%3A%20%3B%20--tw-backdrop-brightness%3A%20%3B%20--tw-backdrop-contrast%3A%20%3B%20--tw-backdrop-grayscale%3A%20%3B%20--tw-backdrop-hue-rotate%3A%20%3B%20--tw-backdrop-invert%3A%20%3B%20--tw-backdrop-opacity%3A%20%3B%20--tw-backdrop-saturate%3A%20%3B%20--tw-backdrop-sepia%3A%20%3B%20--tw-contain-size%3A%20%3B%20--tw-contain-layout%3A%20%3B%20--tw-contain-paint%3A%20%3B%20--tw-contain-style%3A%20%3B%20scrollbar-color%3A%20var(--main-surface-tertiary)%20transparent%3B%20text-align%3A%20left%3B%26quot%3B%20class%3D%26quot%3Bhljs-number%26quot%3B%26gt%3B50%26lt%3B%2Fspan%26gt%3B%26lt%3Bspan%20style%3D%26quot%3Btext-align%3A%20left%3B%26quot%3B%26gt%3B%5D%2C%20%26lt%3B%2Fspan%26gt%3B%26lt%3Bspan%20style%3D%26quot%3Btext-align%3A%20left%3B%26quot%3B%26gt%3B%26amp%3Bnbsp%3BLastName%5B%26lt%3B%2Fspan%26gt%3B%26lt%3Bspan%20style%3D%26quot%3Bborder%3A%200px%20solid%20rgb(227%2C%20227%2C%20227)%3B%20box-sizing%3A%20border-box%3B%20--tw-border-spacing-x%3A%200%3B%20--tw-border-spacing-y%3A%200%3B%20--tw-translate-x%3A%200%3B%20--tw-translate-y%3A%200%3B%20--tw-rotate%3A%200%3B%20--tw-skew-x%3A%200%3B%20--tw-skew-y%3A%200%3B%20--tw-scale-x%3A%201%3B%20--tw-scale-y%3A%201%3B%20--tw-pan-x%3A%20%3B%20--tw-pan-y%3A%20%3B%20--tw-pinch-zoom%3A%20%3B%20--tw-scroll-snap-strictness%3A%20proximity%3B%20--tw-gradient-from-position%3A%20%3B%20--tw-gradient-via-position%3A%20%3B%20--tw-gradient-to-position%3A%20%3B%20--tw-ordinal%3A%20%3B%20--tw-slashed-zero%3A%20%3B%20--tw-numeric-figure%3A%20%3B%20--tw-numeric-spacing%3A%20%3B%20--tw-numeric-fraction%3A%20%3B%20--tw-ring-inset%3A%20%3B%20--tw-ring-offset-width%3A%200px%3B%20--tw-ring-offset-color%3A%20%23fff%3B%20--tw-ring-color%3A%20rgba(69%2C89%2C164%2C.5)%3B%20--tw-ring-offset-shadow%3A%200%200%20%230000%3B%20--tw-ring-shadow%3A%200%200%20%230000%3B%20--tw-shadow%3A%200%200%20%230000%3B%20--tw-shadow-colored%3A%200%200%20%230000%3B%20--tw-blur%3A%20%3B%20--tw-brightness%3A%20%3B%20--tw-contrast%3A%20%3B%20--tw-grayscale%3A%20%3B%20--tw-hue-rotate%3A%20%3B%20--tw-invert%3A%20%3B%20--tw-saturate%3A%20%3B%20--tw-sepia%3A%20%3B%20--tw-drop-shadow%3A%20%3B%20--tw-backdrop-blur%3A%20%3B%20--tw-backdrop-brightness%3A%20%3B%20--tw-backdrop-contrast%3A%20%3B%20--tw-backdrop-grayscale%3A%20%3B%20--tw-backdrop-hue-rotate%3A%20%3B%20--tw-backdrop-invert%3A%20%3B%20--tw-backdrop-opacity%3A%20%3B%20--tw-backdrop-saturate%3A%20%3B%20--tw-backdrop-sepia%3A%20%3B%20--tw-contain-size%3A%20%3B%20--tw-contain-layout%3A%20%3B%20--tw-contain-paint%3A%20%3B%20--tw-contain-style%3A%20%3B%20scrollbar-color%3A%20var(--main-surface-tertiary)%20transparent%3B%20text-align%3A%20left%3B%26quot%3B%20class%3D%26quot%3Bhljs-number%26quot%3B%26gt%3B50%26lt%3B%2Fspan%26gt%3B%26lt%3Bspan%20style%3D%26quot%3Btext-align%3A%20left%3B%26quot%3B%26gt%3B%5D%26lt%3B%2Fspan%26gt%3B%26lt%3Bbr%26gt%3B%26lt%3B%2Fdiv%26gt%3B%26lt%3B%2Fdiv%26gt%3B%22%20style%3D%22rounded%3D0%3BwhiteSpace%3Dwrap%3Bhtml%3D1%3B%22%20vertex%3D%221%22%20parent%3D%221%22%3E%3CmxGeometry%20x%3D%22299%22%20y%3D%22240%22%20width%3D%22230%22%20height%3D%2290%22%20as%3D%22geometry%22%2F%3E%3C%2FmxCell%3E%3C%2Froot%3E%3C%2FmxGraphModel%3E&lt;/span&gt;&lt;/div&gt;" style="shape=parallelogram;perimeter=parallelogramPerimeter;whiteSpace=wrap;html=1;fixedSize=1;" vertex="1" parent="1">
          <mxGeometry x="297" y="740" width="234" height="80" as="geometry" />
        </mxCell>
        <mxCell id="lgP_1gACHfZoU-txrUbW-16" value="" style="edgeStyle=orthogonalEdgeStyle;rounded=0;orthogonalLoop=1;jettySize=auto;html=1;" edge="1" parent="1" source="lgP_1gACHfZoU-txrUbW-13" target="lgP_1gACHfZoU-txrUbW-15">
          <mxGeometry relative="1" as="geometry" />
        </mxCell>
        <mxCell id="lgP_1gACHfZoU-txrUbW-13" value="&lt;div&gt;&lt;div style=&quot;line-height: 19px;&quot;&gt;แสดงผล&lt;/div&gt;&lt;/div&gt;&lt;div style=&quot;line-height: 19px;&quot;&gt;&lt;div style=&quot;line-height: 19px;&quot;&gt;[FirstName] [LastName]s&amp;nbsp;TC, RMUTL, Chiang Mai, Thailand&lt;span style=&quot;background-color: initial;&quot;&gt;&amp;nbsp;&lt;/span&gt;&lt;/div&gt;&lt;/div&gt;&lt;div style=&quot;line-height: 19px;&quot;&gt;&lt;span style=&quot;text-align: start; text-wrap: nowrap; font-size: 0px; font-family: monospace; color: rgba(0, 0, 0, 0);&quot;&gt;%3CmxGraphModel%3E%3Croot%3E%3CmxCell%20id%3D%220%22%2F%3E%3CmxCell%20id%3D%221%22%20parent%3D%220%22%2F%3E%3CmxCell%20id%3D%222%22%20value%3D%22Initialization%26lt%3Bdiv%26gt%3B%26lt%3Bdiv%20style%3D%26quot%3Bline-height%3A%2019px%3B%26quot%3B%26gt%3B%26lt%3Bspan%20style%3D%26quot%3Btext-align%3A%20left%3B%26quot%3B%26gt%3BFirstName%5B%26lt%3B%2Fspan%26gt%3B%26lt%3Bspan%20style%3D%26quot%3Bborder%3A%200px%20solid%20rgb(227%2C%20227%2C%20227)%3B%20box-sizing%3A%20border-box%3B%20--tw-border-spacing-x%3A%200%3B%20--tw-border-spacing-y%3A%200%3B%20--tw-translate-x%3A%200%3B%20--tw-translate-y%3A%200%3B%20--tw-rotate%3A%200%3B%20--tw-skew-x%3A%200%3B%20--tw-skew-y%3A%200%3B%20--tw-scale-x%3A%201%3B%20--tw-scale-y%3A%201%3B%20--tw-pan-x%3A%20%3B%20--tw-pan-y%3A%20%3B%20--tw-pinch-zoom%3A%20%3B%20--tw-scroll-snap-strictness%3A%20proximity%3B%20--tw-gradient-from-position%3A%20%3B%20--tw-gradient-via-position%3A%20%3B%20--tw-gradient-to-position%3A%20%3B%20--tw-ordinal%3A%20%3B%20--tw-slashed-zero%3A%20%3B%20--tw-numeric-figure%3A%20%3B%20--tw-numeric-spacing%3A%20%3B%20--tw-numeric-fraction%3A%20%3B%20--tw-ring-inset%3A%20%3B%20--tw-ring-offset-width%3A%200px%3B%20--tw-ring-offset-color%3A%20%23fff%3B%20--tw-ring-color%3A%20rgba(69%2C89%2C164%2C.5)%3B%20--tw-ring-offset-shadow%3A%200%200%20%230000%3B%20--tw-ring-shadow%3A%200%200%20%230000%3B%20--tw-shadow%3A%200%200%20%230000%3B%20--tw-shadow-colored%3A%200%200%20%230000%3B%20--tw-blur%3A%20%3B%20--tw-brightness%3A%20%3B%20--tw-contrast%3A%20%3B%20--tw-grayscale%3A%20%3B%20--tw-hue-rotate%3A%20%3B%20--tw-invert%3A%20%3B%20--tw-saturate%3A%20%3B%20--tw-sepia%3A%20%3B%20--tw-drop-shadow%3A%20%3B%20--tw-backdrop-blur%3A%20%3B%20--tw-backdrop-brightness%3A%20%3B%20--tw-backdrop-contrast%3A%20%3B%20--tw-backdrop-grayscale%3A%20%3B%20--tw-backdrop-hue-rotate%3A%20%3B%20--tw-backdrop-invert%3A%20%3B%20--tw-backdrop-opacity%3A%20%3B%20--tw-backdrop-saturate%3A%20%3B%20--tw-backdrop-sepia%3A%20%3B%20--tw-contain-size%3A%20%3B%20--tw-contain-layout%3A%20%3B%20--tw-contain-paint%3A%20%3B%20--tw-contain-style%3A%20%3B%20scrollbar-color%3A%20var(--main-surface-tertiary)%20transparent%3B%20text-align%3A%20left%3B%26quot%3B%20class%3D%26quot%3Bhljs-number%26quot%3B%26gt%3B50%26lt%3B%2Fspan%26gt%3B%26lt%3Bspan%20style%3D%26quot%3Btext-align%3A%20left%3B%26quot%3B%26gt%3B%5D%2C%20%26lt%3B%2Fspan%26gt%3B%26lt%3Bspan%20style%3D%26quot%3Btext-align%3A%20left%3B%26quot%3B%26gt%3B%26amp%3Bnbsp%3BLastName%5B%26lt%3B%2Fspan%26gt%3B%26lt%3Bspan%20style%3D%26quot%3Bborder%3A%200px%20solid%20rgb(227%2C%20227%2C%20227)%3B%20box-sizing%3A%20border-box%3B%20--tw-border-spacing-x%3A%200%3B%20--tw-border-spacing-y%3A%200%3B%20--tw-translate-x%3A%200%3B%20--tw-translate-y%3A%200%3B%20--tw-rotate%3A%200%3B%20--tw-skew-x%3A%200%3B%20--tw-skew-y%3A%200%3B%20--tw-scale-x%3A%201%3B%20--tw-scale-y%3A%201%3B%20--tw-pan-x%3A%20%3B%20--tw-pan-y%3A%20%3B%20--tw-pinch-zoom%3A%20%3B%20--tw-scroll-snap-strictness%3A%20proximity%3B%20--tw-gradient-from-position%3A%20%3B%20--tw-gradient-via-position%3A%20%3B%20--tw-gradient-to-position%3A%20%3B%20--tw-ordinal%3A%20%3B%20--tw-slashed-zero%3A%20%3B%20--tw-numeric-figure%3A%20%3B%20--tw-numeric-spacing%3A%20%3B%20--tw-numeric-fraction%3A%20%3B%20--tw-ring-inset%3A%20%3B%20--tw-ring-offset-width%3A%200px%3B%20--tw-ring-offset-color%3A%20%23fff%3B%20--tw-ring-color%3A%20rgba(69%2C89%2C164%2C.5)%3B%20--tw-ring-offset-shadow%3A%200%200%20%230000%3B%20--tw-ring-shadow%3A%200%200%20%230000%3B%20--tw-shadow%3A%200%200%20%230000%3B%20--tw-shadow-colored%3A%200%200%20%230000%3B%20--tw-blur%3A%20%3B%20--tw-brightness%3A%20%3B%20--tw-contrast%3A%20%3B%20--tw-grayscale%3A%20%3B%20--tw-hue-rotate%3A%20%3B%20--tw-invert%3A%20%3B%20--tw-saturate%3A%20%3B%20--tw-sepia%3A%20%3B%20--tw-drop-shadow%3A%20%3B%20--tw-backdrop-blur%3A%20%3B%20--tw-backdrop-brightness%3A%20%3B%20--tw-backdrop-contrast%3A%20%3B%20--tw-backdrop-grayscale%3A%20%3B%20--tw-backdrop-hue-rotate%3A%20%3B%20--tw-backdrop-invert%3A%20%3B%20--tw-backdrop-opacity%3A%20%3B%20--tw-backdrop-saturate%3A%20%3B%20--tw-backdrop-sepia%3A%20%3B%20--tw-contain-size%3A%20%3B%20--tw-contain-layout%3A%20%3B%20--tw-contain-paint%3A%20%3B%20--tw-contain-style%3A%20%3B%20scrollbar-color%3A%20var(--main-surface-tertiary)%20transparent%3B%20text-align%3A%20left%3B%26quot%3B%20class%3D%26quot%3Bhljs-number%26quot%3B%26gt%3B50%26lt%3B%2Fspan%26gt%3B%26lt%3Bspan%20style%3D%26quot%3Btext-align%3A%20left%3B%26quot%3B%26gt%3B%5D%26lt%3B%2Fspan%26gt%3B%26lt%3Bbr%26gt%3B%26lt%3B%2Fdiv%26gt%3B%26lt%3B%2Fdiv%26gt%3B%22%20style%3D%22rounded%3D0%3BwhiteSpace%3Dwrap%3Bhtml%3D1%3B%22%20vertex%3D%221%22%20parent%3D%221%22%3E%3CmxGeometry%20x%3D%22299%22%20y%3D%22240%22%20width%3D%22230%22%20height%3D%2290%22%20as%3D%22geometry%22%2F%3E%3C%2FmxCell%3E%3C%2Froot%3E%3C%2FmxGraphMo&lt;/span&gt;&lt;span style=&quot;text-align: start; background-color: initial; text-wrap: nowrap; font-size: 0px; font-family: monospace; color: rgba(0, 0, 0, 0);&quot;&gt;%3CmxGraphModel%3E%3Croot%3E%3CmxCell%20id%3D%220%22%2F%3E%3CmxCell%20id%3D%221%22%20parent%3D%220%22%2F%3E%3CmxCell%20id%3D%222%22%20value%3D%22Initialization%26lt%3Bdiv%26gt%3B%26lt%3Bdiv%20style%3D%26quot%3Bline-height%3A%2019px%3B%26quot%3B%26gt%3B%26lt%3Bspan%20style%3D%26quot%3Btext-align%3A%20left%3B%26quot%3B%26gt%3BFirstName%5B%26lt%3B%2Fspan%26gt%3B%26lt%3Bspan%20style%3D%26quot%3Bborder%3A%200px%20solid%20rgb(227%2C%20227%2C%20227)%3B%20box-sizing%3A%20border-box%3B%20--tw-border-spacing-x%3A%200%3B%20--tw-border-spacing-y%3A%200%3B%20--tw-translate-x%3A%200%3B%20--tw-translate-y%3A%200%3B%20--tw-rotate%3A%200%3B%20--tw-skew-x%3A%200%3B%20--tw-skew-y%3A%200%3B%20--tw-scale-x%3A%201%3B%20--tw-scale-y%3A%201%3B%20--tw-pan-x%3A%20%3B%20--tw-pan-y%3A%20%3B%20--tw-pinch-zoom%3A%20%3B%20--tw-scroll-snap-strictness%3A%20proximity%3B%20--tw-gradient-from-position%3A%20%3B%20--tw-gradient-via-position%3A%20%3B%20--tw-gradient-to-position%3A%20%3B%20--tw-ordinal%3A%20%3B%20--tw-slashed-zero%3A%20%3B%20--tw-numeric-figure%3A%20%3B%20--tw-numeric-spacing%3A%20%3B%20--tw-numeric-fraction%3A%20%3B%20--tw-ring-inset%3A%20%3B%20--tw-ring-offset-width%3A%200px%3B%20--tw-ring-offset-color%3A%20%23fff%3B%20--tw-ring-color%3A%20rgba(69%2C89%2C164%2C.5)%3B%20--tw-ring-offset-shadow%3A%200%200%20%230000%3B%20--tw-ring-shadow%3A%200%200%20%230000%3B%20--tw-shadow%3A%200%200%20%230000%3B%20--tw-shadow-colored%3A%200%200%20%230000%3B%20--tw-blur%3A%20%3B%20--tw-brightness%3A%20%3B%20--tw-contrast%3A%20%3B%20--tw-grayscale%3A%20%3B%20--tw-hue-rotate%3A%20%3B%20--tw-invert%3A%20%3B%20--tw-saturate%3A%20%3B%20--tw-sepia%3A%20%3B%20--tw-drop-shadow%3A%20%3B%20--tw-backdrop-blur%3A%20%3B%20--tw-backdrop-brightness%3A%20%3B%20--tw-backdrop-contrast%3A%20%3B%20--tw-backdrop-grayscale%3A%20%3B%20--tw-backdrop-hue-rotate%3A%20%3B%20--tw-backdrop-invert%3A%20%3B%20--tw-backdrop-opacity%3A%20%3B%20--tw-backdrop-saturate%3A%20%3B%20--tw-backdrop-sepia%3A%20%3B%20--tw-contain-size%3A%20%3B%20--tw-contain-layout%3A%20%3B%20--tw-contain-paint%3A%20%3B%20--tw-contain-style%3A%20%3B%20scrollbar-color%3A%20var(--main-surface-tertiary)%20transparent%3B%20text-align%3A%20left%3B%26quot%3B%20class%3D%26quot%3Bhljs-number%26quot%3B%26gt%3B50%26lt%3B%2Fspan%26gt%3B%26lt%3Bspan%20style%3D%26quot%3Btext-align%3A%20left%3B%26quot%3B%26gt%3B%5D%2C%20%26lt%3B%2Fspan%26gt%3B%26lt%3Bspan%20style%3D%26quot%3Btext-align%3A%20left%3B%26quot%3B%26gt%3B%26amp%3Bnbsp%3BLastName%5B%26lt%3B%2Fspan%26gt%3B%26lt%3Bspan%20style%3D%26quot%3Bborder%3A%200px%20solid%20rgb(227%2C%20227%2C%20227)%3B%20box-sizing%3A%20border-box%3B%20--tw-border-spacing-x%3A%200%3B%20--tw-border-spacing-y%3A%200%3B%20--tw-translate-x%3A%200%3B%20--tw-translate-y%3A%200%3B%20--tw-rotate%3A%200%3B%20--tw-skew-x%3A%200%3B%20--tw-skew-y%3A%200%3B%20--tw-scale-x%3A%201%3B%20--tw-scale-y%3A%201%3B%20--tw-pan-x%3A%20%3B%20--tw-pan-y%3A%20%3B%20--tw-pinch-zoom%3A%20%3B%20--tw-scroll-snap-strictness%3A%20proximity%3B%20--tw-gradient-from-position%3A%20%3B%20--tw-gradient-via-position%3A%20%3B%20--tw-gradient-to-position%3A%20%3B%20--tw-ordinal%3A%20%3B%20--tw-slashed-zero%3A%20%3B%20--tw-numeric-figure%3A%20%3B%20--tw-numeric-spacing%3A%20%3B%20--tw-numeric-fraction%3A%20%3B%20--tw-ring-inset%3A%20%3B%20--tw-ring-offset-width%3A%200px%3B%20--tw-ring-offset-color%3A%20%23fff%3B%20--tw-ring-color%3A%20rgba(69%2C89%2C164%2C.5)%3B%20--tw-ring-offset-shadow%3A%200%200%20%230000%3B%20--tw-ring-shadow%3A%200%200%20%230000%3B%20--tw-shadow%3A%200%200%20%230000%3B%20--tw-shadow-colored%3A%200%200%20%230000%3B%20--tw-blur%3A%20%3B%20--tw-brightness%3A%20%3B%20--tw-contrast%3A%20%3B%20--tw-grayscale%3A%20%3B%20--tw-hue-rotate%3A%20%3B%20--tw-invert%3A%20%3B%20--tw-saturate%3A%20%3B%20--tw-sepia%3A%20%3B%20--tw-drop-shadow%3A%20%3B%20--tw-backdrop-blur%3A%20%3B%20--tw-backdrop-brightness%3A%20%3B%20--tw-backdrop-contrast%3A%20%3B%20--tw-backdrop-grayscale%3A%20%3B%20--tw-backdrop-hue-rotate%3A%20%3B%20--tw-backdrop-invert%3A%20%3B%20--tw-backdrop-opacity%3A%20%3B%20--tw-backdrop-saturate%3A%20%3B%20--tw-backdrop-sepia%3A%20%3B%20--tw-contain-size%3A%20%3B%20--tw-contain-layout%3A%20%3B%20--tw-contain-paint%3A%20%3B%20--tw-contain-style%3A%20%3B%20scrollbar-color%3A%20var(--main-surface-tertiary)%20transparent%3B%20text-align%3A%20left%3B%26quot%3B%20class%3D%26quot%3Bhljs-number%26quot%3B%26gt%3B50%26lt%3B%2Fspan%26gt%3B%26lt%3Bspan%20style%3D%26quot%3Btext-align%3A%20left%3B%26quot%3B%26gt%3B%5D%26lt%3B%2Fspan%26gt%3B%26lt%3Bbr%26gt%3B%26lt%3B%2Fdiv%26gt%3B%26lt%3B%2Fdiv%26gt%3B%22%20style%3D%22rounded%3D0%3BwhiteSpace%3Dwrap%3Bhtml%3D1%3B%22%20vertex%3D%221%22%20parent%3D%221%22%3E%3CmxGeometry%20x%3D%22299%22%20y%3D%22240%22%20width%3D%22230%22%20height%3D%2290%22%20as%3D%22geometry%22%2F%3E%3C%2FmxCell%3E%3C%2Froot%3E%3C%2FmxGraphModel%3E&lt;/span&gt;&lt;/div&gt;" style="shape=parallelogram;perimeter=parallelogramPerimeter;whiteSpace=wrap;html=1;fixedSize=1;" vertex="1" parent="1">
          <mxGeometry x="297" y="900" width="234" height="80" as="geometry" />
        </mxCell>
        <mxCell id="lgP_1gACHfZoU-txrUbW-15" value="&lt;span style=&quot;font-size: 20px;&quot;&gt;สิ้นสุด&lt;/span&gt;" style="rounded=1;whiteSpace=wrap;html=1;arcSize=50;" vertex="1" parent="1">
          <mxGeometry x="316" y="1060" width="196" height="60" as="geometry" />
        </mxCell>
      </root>
    </mxGraphModel>
  </diagram>
</mxfile>
